<svg width="35" height="35" viewBox="0 0 35 35" fill="none" xmlns="http://www.w3.org/2000/svg">
<path d="M17.5 8C22.157 8 26 11.843 26 16.5C26 20.2337 23.534 23.4194 20.084 24.5591C19.645 24.6461 19.489 24.3723 19.489 24.1379C19.489 23.8549 19.499 23.0511 19.499 21.9523C19.499 21.1559 19.222 20.6393 18.916 20.3725C20.83 20.1563 22.845 19.4328 22.845 16.1075C22.845 15.1486 22.506 14.3787 21.947 13.7702C22.037 13.5516 22.336 12.6687 21.864 11.4772C21.864 11.4772 21.137 11.2428 19.51 12.3574C18.823 12.1645 18.084 12.0681 17.349 12.0652C16.614 12.0681 15.876 12.1645 15.19 12.3574C13.562 11.2428 12.834 11.4772 12.834 11.4772C12.363 12.6687 12.662 13.5516 12.752 13.7702C12.195 14.3787 11.854 15.1486 11.854 16.1075C11.854 19.4255 13.865 20.159 15.774 20.3796C15.529 20.5953 15.307 20.9736 15.229 21.5446C14.738 21.7654 13.492 22.1466 12.727 20.8199C12.727 20.8199 12.271 19.9852 11.401 19.9235C11.401 19.9235 10.557 19.9119 11.342 20.4541C11.342 20.4541 11.91 20.7254 12.303 21.7364C12.303 21.7364 12.813 23.3031 15.201 22.7754C15.205 23.4989 15.213 24.1771 15.213 24.1379C15.213 24.3708 15.054 24.6431 14.623 24.5591C11.17 23.4209 8.7 20.2337 8.7 16.5C8.7 11.843 12.544 8 17.5 8Z" fill="black"/>
<circle cx="17.5" cy="17.5" r="17.25" stroke="#5E5E5E" stroke-width="0.5"/>
</svg>