<svg width="35" height="35" viewBox="0 0 35 35" fill="none" xmlns="http://www.w3.org/2000/svg">
<path d="M23.72 10H10.37C10.197 9.99194 10.025 10.0179 9.863 10.0764C9.701 10.1349 9.552 10.2247 9.425 10.3408C9.298 10.4569 9.195 10.597 9.122 10.753C9.049 10.909 9.007 11.0779 9 11.25V24.63C9.01 24.9901 9.157 25.3328 9.412 25.5875C9.667 25.8423 10.01 25.9899 10.37 26H23.72C24.07 25.9844 24.4 25.8322 24.639 25.5761C24.878 25.32 25.008 24.9804 25 24.63V11.25C25.002 11.0825 24.971 10.9162 24.907 10.7612C24.844 10.6063 24.749 10.466 24.629 10.349C24.509 10.2319 24.367 10.1406 24.21 10.0806C24.054 10.0206 23.887 9.99314 23.72 10ZM14 23.34H11.67V16.21H14V23.34ZM12.89 15.13C12.727 15.1356 12.565 15.1076 12.414 15.0477C12.262 14.9877 12.125 14.8972 12.011 14.7817C11.896 14.6661 11.807 14.5282 11.748 14.3765C11.689 14.2247 11.663 14.0625 11.67 13.9C11.662 13.7357 11.689 13.5717 11.749 13.4185C11.809 13.2654 11.901 13.1264 12.017 13.0106C12.134 12.8948 12.274 12.8047 12.427 12.746C12.581 12.6874 12.745 12.6614 12.91 12.67C13.072 12.6643 13.234 12.6923 13.385 12.7523C13.537 12.8122 13.674 12.9027 13.788 13.0183C13.903 13.1339 13.992 13.2717 14.051 13.4235C14.11 13.5752 14.136 13.7374 14.13 13.9C14.137 14.0643 14.109 14.2283 14.05 14.3815C13.99 14.5346 13.898 14.6735 13.782 14.7894C13.665 14.9052 13.525 14.9953 13.372 15.0539C13.218 15.1126 13.054 15.1386 12.89 15.13ZM22.34 23.34H20V19.44C20 18.51 19.67 17.87 18.84 17.87C18.582 17.8722 18.331 17.9541 18.121 18.1045C17.912 18.2549 17.754 18.4664 17.67 18.71C17.605 18.8926 17.577 19.0865 17.59 19.28V23.34H15.29V16.21H17.59V17.21C17.794 16.8343 18.098 16.5225 18.469 16.3089C18.84 16.0954 19.262 15.9885 19.69 16C21.2 16 22.34 17 22.34 19.13V23.34Z" fill="black"/>
<circle cx="17.5" cy="17.5" r="17.25" stroke="#5E5E5E" stroke-width="0.5"/>
</svg>
</svg>